<?xml version="1.0" standalone="no"?>
<!DOCTYPE svg PUBLIC "-//W3C//DTD SVG 20010904//EN"
 "http://www.w3.org/TR/2001/REC-SVG-20010904/DTD/svg10.dtd">
<svg version="1.0" xmlns="http://www.w3.org/2000/svg"
 width="105.000000pt" height="105.000000pt" viewBox="0 0 105.000000 105.000000"
 preserveAspectRatio="xMidYMid meet">
<metadata>
Created by potrace 1.11, written by Peter Selinger 2001-2013
</metadata>
<g transform="translate(0.000000,105.000000) scale(0.100000,-0.100000)"
fill="#000000" stroke="none">
<path d="M385 812 c-13 -14 -35 -75 -35 -100 0 -18 15 -40 52 -74 28 -26 52
-47 53 -45 2 4 26 91 32 115 4 16 -2 31 -18 48 -35 37 -75 65 -84 56z"/>
<path d="M592 767 l-43 -44 23 -71 23 -71 53 51 c48 46 52 53 46 82 -11 52
-32 96 -46 96 -8 0 -33 -19 -56 -43z"/>
<path d="M156 653 c16 -88 28 -108 70 -114 21 -4 53 -10 70 -14 l31 -7 -14 64
c-8 34 -17 68 -18 75 -5 14 -68 33 -113 33 -33 0 -33 0 -26 -37z"/>
<path d="M817 679 c-57 -13 -77 -27 -77 -53 0 -12 -6 -44 -14 -70 -13 -44 -13
-47 2 -41 9 4 44 12 76 19 55 11 61 15 72 47 7 19 13 51 13 72 1 41 -3 42 -72
26z"/>
<path d="M506 629 c-14 -69 -4 -199 14 -199 15 0 32 101 26 151 -11 84 -28
105 -40 48z"/>
<path d="M350 607 c0 -7 7 -34 16 -60 16 -46 87 -137 98 -126 12 11 -25 105
-59 152 -35 47 -55 59 -55 34z"/>
<path d="M646 569 c-36 -42 -74 -134 -61 -147 16 -16 85 90 105 159 12 40 -2
36 -44 -12z"/>
<path d="M86 482 c-27 -9 -52 -23 -54 -30 -7 -23 99 -117 153 -135 55 -19 167
-22 214 -6 42 15 39 25 -11 33 -60 10 -133 53 -183 108 -24 26 -49 48 -57 48
-7 -1 -35 -9 -62 -18z"/>
<path d="M230 491 c0 -16 58 -61 110 -85 58 -27 80 -32 80 -17 0 12 -54 57
-89 75 -36 19 -101 36 -101 27z"/>
<path d="M867 473 c-66 -78 -107 -106 -196 -133 -53 -17 -54 -18 -30 -30 41
-23 176 -17 233 10 55 25 151 114 141 131 -8 12 -46 28 -93 39 -29 7 -37 5
-55 -17z"/>
<path d="M725 465 c-50 -24 -114 -80 -103 -90 14 -14 110 29 155 70 44 41 46
44 23 44 -14 0 -48 -11 -75 -24z"/>
<path d="M483 403 c-21 -8 -14 -25 7 -18 14 5 20 2 20 -9 0 -9 -6 -16 -12 -16
-8 -1 -6 -6 5 -14 9 -7 17 -18 17 -25 0 -17 -31 -13 -46 7 -13 16 -13 16 -14
-1 0 -24 45 -44 64 -28 10 8 16 9 21 1 19 -30 52 18 35 51 -8 15 -8 24 0 34 9
10 6 15 -10 20 -12 4 -27 2 -35 -5 -9 -7 -15 -8 -20 0 -7 11 -13 11 -32 3z
m61 -32 c3 -5 -1 -11 -9 -14 -9 -4 -12 -1 -8 9 6 16 10 17 17 5z m26 -42 c0
-18 -2 -19 -15 -9 -15 12 -12 30 6 30 5 0 9 -10 9 -21z"/>
</g>
</svg>
