<svg width="64" height="46" viewBox="0 0 64 46" fill="none" xmlns="http://www.w3.org/2000/svg">
<path d="M25 5.99999C25 5.99999 24.4667 6.86666 23.4 8.59999C22.3333 10.2 21.0667 12.2667 19.6 14.8C18.1333 17.2 16.8667 19.6 15.8 22C16.6 22 17.8667 22.7333 19.6 24.2C21.4667 25.6667 23.1333 27.3333 24.6 29.2C26.2 30.9333 27 32.4 27 33.6C27 37.3333 25.7333 40.3333 23.2 42.6C20.8 44.8667 17.7333 46 14 46C10.4 46 7.2 44.6667 4.4 42C1.73333 39.3333 0.4 36.1333 0.4 32.4C0.4 28.5333 1.26667 24.7333 3 21C4.73333 17.1333 6.73333 13.6 9 10.4C11.4 7.19999 13.4667 4.66666 15.2 2.8C17.0667 0.933329 18 -3.8147e-06 18 -3.8147e-06L25 5.99999ZM62 5.99999C62 5.99999 61.4667 6.86666 60.4 8.59999C59.3333 10.2 58.0667 12.2667 56.6 14.8C55.1333 17.2 53.8667 19.6 52.8 22C53.6 22 54.8667 22.7333 56.6 24.2C58.4667 25.6667 60.1333 27.3333 61.6 29.2C63.2 30.9333 64 32.4 64 33.6C64 37.3333 62.7333 40.3333 60.2 42.6C57.8 44.8667 54.7333 46 51 46C47.4 46 44.2 44.6667 41.4 42C38.7333 39.3333 37.4 36.1333 37.4 32.4C37.4 28.5333 38.2667 24.7333 40 21C41.7333 17.1333 43.7333 13.6 46 10.4C48.4 7.19999 50.4667 4.66666 52.2 2.8C54.0667 0.933329 55 -3.8147e-06 55 -3.8147e-06L62 5.99999Z" fill="black"/>
</svg>
