<svg width="64" height="46" viewBox="0 0 64 46" fill="none" xmlns="http://www.w3.org/2000/svg">
<path d="M39 40C39 40 39.5333 39.1333 40.6 37.4C41.6667 35.8 42.9333 33.7333 44.4 31.2C45.8667 28.8 47.1333 26.4 48.2 24C47.4 24 46.1333 23.2667 44.4 21.8C42.5333 20.3333 40.8667 18.6667 39.4 16.8C37.8 15.0667 37 13.6 37 12.4C37 8.66667 38.2667 5.66667 40.8 3.4C43.2 1.13334 46.2667 5.96046e-06 50 5.96046e-06C53.6 5.96046e-06 56.8 1.33334 59.6 4C62.2667 6.66667 63.6 9.86667 63.6 13.6C63.6 17.4667 62.7333 21.2667 61 25C59.2667 28.8667 57.2667 32.4 55 35.6C52.6 38.8 50.5333 41.3333 48.8 43.2C46.9333 45.0667 46 46 46 46L39 40ZM2 40C2 40 2.53333 39.1333 3.6 37.4C4.66666 35.8 5.93333 33.7333 7.39999 31.2C8.86666 28.8 10.1333 26.4 11.2 24C10.4 24 9.13333 23.2667 7.39999 21.8C5.53333 20.3333 3.86666 18.6667 2.4 16.8C0.799996 15.0667 -5.72205e-06 13.6 -5.72205e-06 12.4C-5.72205e-06 8.66667 1.26666 5.66667 3.8 3.4C6.2 1.13334 9.26666 5.96046e-06 13 5.96046e-06C16.6 5.96046e-06 19.8 1.33334 22.6 4C25.2667 6.66667 26.6 9.86667 26.6 13.6C26.6 17.4667 25.7333 21.2667 24 25C22.2667 28.8667 20.2667 32.4 18 35.6C15.6 38.8 13.5333 41.3333 11.8 43.2C9.93333 45.0667 9 46 9 46L2 40Z" fill="black"/>
</svg>
